<svg xmlns="http://www.w3.org/2000/svg" width="300" height="235" viewBox="0 0 300 235"><path d="M222.1 82.3c10.2 14.6 16.1 32.3 16.1 51.4 0 49.7-40.3 90-90 90s-90-40.3-90-90c0-49.7 40.3-90 90-90 19.6 0 37.7 6.2 52.4 16.9l7.3-7.3c-16.7-12.4-37.4-19.8-59.7-19.8 -55.3 0-100.2 44.9-100.2 100.2 0 55.3 44.9 100.2 100.2 100.2s100.2-44.9 100.2-100.2c0-21.9-7.1-42.2-19-58.7L222.1 82.3z"/><path d="M187.5 116.9l-2.3 2.3c1.8 4.5 2.7 9.4 2.7 14.5 0 21.9-17.8 39.7-39.7 39.7s-39.7-17.8-39.7-39.7c0-21.9 17.8-39.7 39.7-39.7 5.6 0 10.9 1.2 15.7 3.3l1.9-1.9 5.7-5.7c-7-3.7-14.9-5.8-23.4-5.8 -27.6 0-49.9 22.3-49.9 49.9 0 27.6 22.3 49.9 49.9 49.9s49.9-22.3 49.9-49.9c0-8-1.9-15.5-5.2-22.2L187.5 116.9z"/><polygon points="272.1 37.9 244 37.9 244 9.9 230.1 24 230.1 45.3 173 102.4 180.4 109.9 238.4 51.9 257.6 51.9 " fill="#cd3333"/></svg>