<svg xmlns="http://www.w3.org/2000/svg" width="300" height="207" viewBox="0 0 300 207"><style>.a{fill:#cd3333;}</style><path d="M268 120h-36c-5.5 0-10 4.5-10 10v67c0 5.5 4.5 10 10 10h36c5.5 0 10-4.5 10-10v-67C278 124.5 273.5 120 268 120zM249.5 200c-2.5 0-4.5-2-4.5-4.5s2-4.5 4.5-4.5 4.5 2 4.5 4.5S252 200 249.5 200zM268 185h-36v-55h36V185z"/><polygon points="156 176 212 176 212 166 59 166 59 49 239 49 239 110 249 110 249 39 49 39 49 176 146 176 146 187 112 187 112 197 187 197 187 187 156 187 "/><polygon points="124.6 108 134.8 97.9 129.9 93.2 115 108 130.3 123.3 135.1 118.5 124.6 108 " class="a"/><polygon points="165.8 93.2 160.9 98 171.3 108.2 160.6 118.7 165.5 123.6 181 108.2 " class="a"/><polygon points="139.1 126.3 145.4 128.9 156.3 92.4 150 89.9 " class="a"/></svg>