<svg xmlns="http://www.w3.org/2000/svg" width="300" height="210" viewBox="0 0 300 210"><style>.a{fill:#cd3333;}.b{fill:#382F2F;}</style><path d="M49 30v180h10V74h180v136h10V30H49zM239 64H59V40h180V64z"/><rect x="75" y="89" width="148" height="45" class="a"/><rect x="75" y="145" width="50" height="65" class="a"/><rect x="135" y="145" width="75" height="10" class="a"/><rect x="135" y="165" width="55" height="10" class="a"/><rect x="135" y="185" width="45" height="10" class="a"/><path d="M69 47.9c2.2 0 4 1.8 4 4s-1.8 4-4 4 -4-1.8-4-4S66.8 47.9 69 47.9z" class="b"/><path d="M80 47.9c2.2 0 4 1.8 4 4s-1.8 4-4 4 -4-1.8-4-4S77.8 47.9 80 47.9z" class="b"/><path d="M92 47.9c2.2 0 4 1.8 4 4s-1.8 4-4 4 -4-1.8-4-4S89.8 47.9 92 47.9z" class="b"/></svg>