<svg xmlns="http://www.w3.org/2000/svg" width="300" height="199" viewBox="0 0 300 199"><path d="M265.5 47.1c-1.8-6.5-7-11.6-13.4-13.4 -1.7-0.5-3.5-0.8-5.3-0.8 -5.3 0-10 2.1-13.5 5.5l-0.5 0.5 -40.8 40.8 -21.2-21.2 -69.3 69.3 39.2 39.2 10.5 5 3.7-5 -39.2-39.2 34.6-34.6 28.3 28.3 28.3 28.3L189.5 166.9l3.5 5 10.6-5 37.8-37.8 -21.9-21.9 40.3-40.3 1.4-1.3c3.1-3.5 5.1-8.1 5.1-13.1C266.2 50.6 266 48.8 265.5 47.1zM227.2 129.1l-13.4 13.4 -28.3-28.3 -28.3-28.3 13.4-13.4L227.2 129.1zM254 58.5c-0.4 0.4-0.8 0.8-1.2 1.2l-11.5 11.5 -29 29h0l-13.4-13.4v0L227.9 57.7l11.9-11.9c0.1-0.1 0.3-0.3 0.4-0.4 1.7-1.6 4-2.6 6.5-2.6 5.3 0 9.5 4.3 9.5 9.5C256.2 54.7 255.4 56.9 254 58.5z"/><path d="M246.7 48.4c-2.2 0-4 1.8-4 4 0 2.2 1.8 4 4 4 2.2 0 4-1.8 4-4C250.7 50.2 248.9 48.4 246.7 48.4z"/><polygon points="203.6 166.9 140.5 166.9 162.7 189 48 189 48 199 171 199 172.1 198.4 " fill="#cd3333"/></svg>